<svg version="1.1" id="Layer_1" xmlns="http://www.w3.org/2000/svg" xmlns:xlink="http://www.w3.org/1999/xlink" x="0px" y="0px" viewBox="0 0 1200 1200" enable-background="new 0 0 1200 1200" xml:space="preserve">
<g>
	<path fill="#1D332D" d="M599.998,50C296.243,50,50,296.243,50,600.002C50,903.758,296.243,1150,599.998,1150
		C903.755,1150,1150,903.758,1150,600.002C1150,296.243,903.755,50,599.998,50 M599.998,660.573
		c-33.452,0-60.571-27.119-60.571-60.572c0-33.455,27.119-60.574,60.571-60.574c33.455,0,60.572,27.119,60.572,60.574
		C660.57,633.454,633.454,660.573,599.998,660.573"></path>
	<path fill="#152622" d="M599.998,241.517c-197.985,0-358.482,160.499-358.482,358.485c0,197.983,160.497,358.482,358.482,358.482
		c197.985,0,358.483-160.5,358.483-358.482C958.482,402.016,797.984,241.517,599.998,241.517 M599.998,660.573
		c-33.452,0-60.571-27.119-60.571-60.572c0-33.455,27.119-60.574,60.571-60.574c33.455,0,60.572,27.119,60.572,60.574
		C660.57,633.454,633.454,660.573,599.998,660.573"></path>
	<path fill="#F9EBDE" d="M1149.958,606.814l0,0.02C1149.958,606.827,1149.958,606.821,1149.958,606.814 M1149.973,605.435
		c0,0.019-0.001,0.052-0.001,0.071C1149.973,605.484,1149.973,605.456,1149.973,605.435 M1149.979,604.729
		c0,0.018,0,0.055-0.001,0.074C1149.979,604.782,1149.979,604.75,1149.979,604.729 M1149.985,604.07c0,0.037,0,0.048-0.001,0.085
		C1149.984,604.127,1149.985,604.098,1149.985,604.07 M1149.99,603.354c0,0.037,0,0.059-0.001,0.096
		C1149.989,603.414,1149.989,603.39,1149.99,603.354 M1149.993,602.709c0,0.019,0,0.069-0.001,0.087
		C1149.993,602.768,1149.993,602.737,1149.993,602.709 M1149.996,601.976c0,0.037,0,0.095,0,0.132
		C1149.996,602.065,1149.996,602.018,1149.996,601.976 M1149.998,601.358c0,0.019,0,0.023,0,0.042
		C1149.998,601.386,1149.998,601.372,1149.998,601.358 M1149.999,600.611c0,0.037,0,0.104,0,0.141
		C1149.999,600.709,1149.999,600.654,1149.999,600.611 M1149.999,599.379c0,0.037,0,0.113,0,0.15
		C1149.999,599.477,1149.999,599.43,1149.999,599.379 M1149.998,598.881c0,0.056,0,0.117,0.001,0.172
		C1149.999,598.997,1149.999,598.938,1149.998,598.881 M1149.997,598.4c0,0.055,0,0.12,0,0.175
		C1149.998,598.518,1149.997,598.457,1149.997,598.4 M1149.996,597.914c0,0.074,0,0.112,0.001,0.186
		C1149.996,598.039,1149.996,597.977,1149.996,597.914 M1149.994,597.443c0,0.056,0.001,0.121,0.001,0.177
		C1149.994,597.558,1149.994,597.505,1149.994,597.443 M1149.991,596.971c0,0.056,0,0.101,0.001,0.156
		C1149.992,597.075,1149.991,597.022,1149.991,596.971 M1149.989,596.504c0,0.037,0,0.058,0.001,0.095
		C1149.989,596.568,1149.989,596.535,1149.989,596.504 M1149.985,596.023c0,0.018,0,0.007,0,0.026
		C1149.986,596.044,1149.985,596.028,1149.985,596.023 M1149.977,594.985c0,0.018,0,0.044,0,0.062
		C1149.978,595.027,1149.977,595.006,1149.977,594.985 M1149.972,594.482c0,0.018,0.001,0.06,0.001,0.078
		C1149.973,594.53,1149.973,594.513,1149.972,594.482 M1149.967,593.98c0,0.037,0.001,0.07,0.001,0.107
		C1149.968,594.052,1149.968,594.017,1149.967,593.98 M1149.962,593.518c0,0.018,0,0.04,0.001,0.059
		C1149.962,593.556,1149.962,593.539,1149.962,593.518 M1149.956,593.041l0,0.021
		C1149.957,593.057,1149.956,593.046,1149.956,593.041"></path>
	<path fill="#254238" d="M1096.408,362.938c-24.391,11.215-53.033,14.866-69.244,37.158
		c-27.727,37.809,11.863,138.134-46.344,138.134c-2.816,0-5.856-0.234-9.149-0.722c-7.576-1.082-14.156-3.938-20.1-7.909
		c4.533,22.763,6.911,46.307,6.911,70.403c0,113.371-52.636,214.457-134.795,280.148c-0.119,22.818-3.857,47.484,2.646,69.592
		c7.163,19.698,33.744,38.184,55.892,38.184c10.534,0,20.064-4.181,26.026-14.402c18.786-35.223,41.748-87.142,83.714-87.142
		c5.261,0,10.816,0.815,16.703,2.581c16.867,5.396,30.794,14.077,43.165,24.657c60.657-87.223,96.736-192.828,98.126-306.786l0-0.02
		c0.005-0.44,0.01-0.869,0.014-1.309c0-0.019,0.001-0.052,0.001-0.071c0.002-0.213,0.004-0.419,0.005-0.632
		c0-0.019,0.001-0.056,0.001-0.074c0.002-0.192,0.003-0.382,0.005-0.574c0-0.037,0.001-0.048,0.001-0.085
		c0.002-0.206,0.003-0.414,0.004-0.62c0-0.037,0-0.059,0.001-0.096c0.001-0.185,0.002-0.373,0.003-0.558
		c0-0.019,0.001-0.069,0.001-0.087c0.001-0.199,0.002-0.402,0.003-0.601c0-0.037,0-0.095,0-0.132
		c0.001-0.192,0.001-0.384,0.002-0.576c0-0.018,0-0.023,0-0.042c0.001-0.206,0.001-0.4,0.001-0.606c0-0.037,0-0.104,0-0.141
		c0-0.206,0-0.403,0-0.609l0,0c0-0.155,0-0.318,0-0.473c0-0.037,0-0.113,0-0.15c0-0.109,0-0.216,0-0.325
		c0-0.055,0-0.116-0.001-0.172c0-0.104,0-0.203-0.001-0.306c0-0.056,0-0.12,0-0.175c0-0.098-0.001-0.2-0.001-0.299
		c0-0.074,0-0.112-0.001-0.186c0-0.098-0.001-0.196-0.001-0.294c0-0.055,0-0.121-0.001-0.177c-0.001-0.103-0.001-0.213-0.002-0.317
		c0-0.055,0-0.101-0.001-0.156c-0.001-0.124-0.002-0.247-0.002-0.371c0-0.037,0-0.058-0.001-0.095
		c-0.001-0.155-0.002-0.3-0.003-0.455c0-0.019,0-0.007,0-0.026c-0.002-0.326-0.005-0.65-0.008-0.976c0-0.019,0-0.044,0-0.062
		c-0.001-0.14-0.003-0.285-0.004-0.424c0-0.018-0.001-0.06-0.001-0.078c-0.001-0.129-0.003-0.266-0.004-0.395
		c0-0.037-0.001-0.07-0.001-0.107c-0.002-0.134-0.003-0.269-0.005-0.403c0-0.018,0-0.04-0.001-0.059
		c-0.002-0.15-0.004-0.306-0.005-0.456l0-0.021C1148.936,510.716,1129.815,432.762,1096.408,362.938"></path>
	<path fill="#1E342D" d="M870.269,467.144c-32.487-0.001-56.624,36.655-67.719,67.72c-3.799,15.194-1.541,39.48-3.381,59.506
		c0.052,1.875,0.142,3.741,0.142,5.631c0,98.057-70.834,179.516-164.112,196.148c0.01,7.055,0.312,14.198,0.872,21.465
		c1.968,15.739,17.121,24.156,31.277,24.156c4.858,0,9.596-0.99,13.647-3.016c25.796-12.898,54.167-29.653,81.519-29.653
		c11.875,0,23.553,3.155,34.752,11.155c22.815,14.763,26.545,36.344,26.422,59.892c82.159-65.69,134.795-166.777,134.795-280.148
		c0-24.096-2.378-47.639-6.911-70.403c-23.084-15.418-36.601-47.648-61.819-58.155C882.976,468.48,876.47,467.144,870.269,467.144"></path>
	<path fill="#243F37" d="M282.441,150.896C168.7,231.47,86.926,354.169,59.796,496.259c49.045,16.9,92.79,72.806,119.118,120.524
		c12.581,21.566,33.72,41.912,57.594,41.912c3.16,0,6.366-0.356,9.609-1.113c-3.027-18.746-4.6-37.981-4.6-57.581
		c0-94.933,36.891-181.237,97.131-245.371c-19.43-32.319-11.04-79.607-1.182-121.014
		C347.256,191.19,318.743,165.907,282.441,150.896"></path>
	<path fill="#1C322C" d="M338.647,354.631c-60.24,64.134-97.131,150.438-97.131,245.371c0,19.6,1.574,38.835,4.6,57.581
		c8.279-1.933,16.782-6.478,25.285-14.375c30.323-30.322,66.832-79.191,107.161-79.191c7.971,0,16.092,1.909,24.343,6.248
		c11.417-76.305,66.076-138.464,138.251-160.737c-0.078-0.499-0.132-1.012-0.217-1.505c-4.404-33.03-36.336-49.547-71.324-49.547
		c-6.999,0-14.117,0.66-21.165,1.982c-21.288,6.387-42.578,24.779-63.866,24.779c-5.137,0-10.272-1.07-15.41-3.639
		C355.089,374.89,345.257,365.626,338.647,354.631"></path>
	<path fill="#BC3D38" d="M599.999,400.69c-110.076,0-199.311,89.235-199.311,199.311s89.235,199.311,199.311,199.311
		c110.077,0,199.311-89.234,199.311-199.311S710.075,400.69,599.999,400.69z M599.999,660.573
		c-33.453,0-60.572-27.119-60.572-60.572c0-33.453,27.119-60.572,60.572-60.572c33.453,0,60.573,27.119,60.573,60.572
		C660.571,633.454,633.452,660.573,599.999,660.573z" style="fill: rgb(188, 61, 56);"></path>
	<path fill="#DE5747" d="M599.999,400.69c-60,0-113.766,26.55-150.305,68.498c2.277,1.387,4.511,2.996,6.685,4.899
		c34.353,34.353,29.068,95.131,68.706,116.271c4.722,2.361,9.614,3.697,14.583,4.395c2.663-30.994,28.648-55.325,60.332-55.325
		c33.453,0,60.573,27.119,60.573,60.572c0,16.024-6.233,30.585-16.393,41.418c8.478,9.37,18.214,17.215,31.53,20.288
		c26.425,7.928,55.493-15.855,81.918,5.285c9.204,6.903,14.399,15.809,19.296,24.756c14.274-27.468,22.388-58.651,22.388-91.746
		C799.31,489.924,710.075,400.69,599.999,400.69z"></path>
</g>
</svg>